<?xml version="1.0" encoding="utf-8"?>
<!-- Generator: Adobe Illustrator 25.3.0, SVG Export Plug-In . SVG Version: 6.00 Build 0)  -->
<svg version="1.1" id="Layer_1" xmlns="http://www.w3.org/2000/svg" xmlns:xlink="http://www.w3.org/1999/xlink" x="0px" y="0px"
	 viewBox="0 0 50 50" style="enable-background:new 0 0 50 50;" xml:space="preserve">
<g id="Layer_1_1_">
	<path d="M24.8,4.5C14.1,4.5,5.3,13.3,5.3,24c0,5.8,2.5,11,6.5,14.5l0,0l0.3,0.2c0,0,0.1,0.1,0.2,0.1c0.3,0.5,0.7,0.7,1,1
		c0.1,0.1,0.2,0.1,0.3,0.2c0.4,0.3,0.8,0.5,1.2,0.8c0.1,0,0.1,0.1,0.2,0.1c0.5,0.3,0.9,0.5,1.4,0.7l0,0c1,0.5,2.1,0.9,3.2,1.2
		c0,0,0,0,0.1,0c0.5,0.1,1.1,0.3,1.6,0.4c0.1,0,0.1,0,0.2,0c0.5,0.1,1,0.2,1.6,0.2c0.1,0,0.1,0,0.2,0c0.5,0,1.1,0.1,1.6,0.1
		s1.1,0,1.6-0.1c0.1,0,0.1,0,0.2,0c0.5,0,1.1-0.1,1.6-0.2c0.1,0,0.1,0,0.2,0c0.5-0.1,1.1-0.2,1.6-0.4c0,0,0,0,0.1,0
		c1.1-0.3,2.2-0.7,3.2-1.2l0,0c0.5-0.2,0.9-0.5,1.4-0.7c0.1,0,0.1-0.1,0.2-0.1c0.4-0.2,0.8-0.5,1.2-0.8c0.1-0.1,0.2-0.1,0.3-0.2
		c0.4-0.3,0.7-0.6,1.1-0.9c0.1,0,0.1-0.1,0.2-0.1l0.3-0.2l0,0c4-3.6,6.5-8.8,6.5-14.5C44.4,13.3,35.6,4.5,24.8,4.5z M24.8,24
		c-3.6,0-6.5-2.9-6.5-6.5s2.9-6.5,6.5-6.5s6.5,2.9,6.5,6.5S28.4,24,24.8,24z M27.3,25.7c4.9,0,9,4,9,9v3.2L36.2,38
		c-0.3,0.3-0.7,0.5-1,0.7c-0.1,0.1-0.1,0.1-0.2,0.2c-0.4,0.2-0.7,0.5-1.1,0.7c-0.1,0-0.1,0.1-0.2,0.1c-0.4,0.2-0.8,0.4-1.2,0.6
		c0,0-0.1,0-0.1,0.1c-1.4,0.6-2.8,1.1-4.2,1.3h-0.1c-0.5,0.1-0.9,0.1-1.4,0.2c-0.1,0-0.1,0-0.2,0c-0.5,0-1,0.1-1.4,0.1s-1,0-1.4-0.1
		c-0.1,0-0.1,0-0.2,0c-0.5,0-0.9-0.1-1.4-0.2H22c-1.5-0.3-2.9-0.7-4.2-1.3c0,0-0.1,0-0.1-0.1c-0.4-0.2-0.8-0.4-1.2-0.6
		c-0.1,0-0.1-0.1-0.2-0.1c-0.4-0.2-0.8-0.5-1.1-0.7c-0.1-0.1-0.1-0.1-0.2-0.2c-0.3-0.2-0.7-0.5-1-0.7l-0.1-0.1v-3.2c0-4.9,4-9,9-9
		H27.3z M37.9,36.3v-1.7c0-5.1-3.6-9.4-8.5-10.4c2.1-1.5,3.6-3.9,3.6-6.7c0-4.5-3.7-8.1-8.1-8.1s-8.1,3.7-8.1,8.1
		c0,2.8,1.4,5.3,3.6,6.7c-4.8,1-8.5,5.3-8.5,10.4v1.7C8.9,33.1,7,28.8,7,24c0-9.9,8-17.9,17.9-17.9s17.9,8,17.9,17.9
		C42.8,28.8,40.9,33.1,37.9,36.3z"/>
</g>
</svg>
