<?xml version="1.0" encoding="utf-8"?>
<!-- Generator: Adobe Illustrator 25.3.0, SVG Export Plug-In . SVG Version: 6.00 Build 0)  -->
<svg version="1.1" id="Layer_1" xmlns="http://www.w3.org/2000/svg" xmlns:xlink="http://www.w3.org/1999/xlink" x="0px" y="0px"
	 viewBox="0 0 100.4 100.4" style="enable-background:new 0 0 100.4 100.4;" xml:space="preserve">
<g>
	<path d="M76.8,16.1h-56c-0.7,0-1.2,0.6-1.2,1.2V84c0,0.7,0.6,1.2,1.2,1.2h56c0.7,0,1.2-0.6,1.2-1.2V17.3
		C78,16.7,77.5,16.1,76.8,16.1z M75.6,82.9H21.9V18.6h53.5L75.6,82.9L75.6,82.9z"/>
	<path d="M28.4,42.5h41.2c0.7,0,1.2-0.6,1.2-1.2V24.5c0-0.7-0.6-1.2-1.2-1.2H28.4c-0.7,0-1.2,0.6-1.2,1.2v16.7
		C27.1,41.9,27.6,42.5,28.4,42.5z M29.5,25.8h38.7V40H29.5V25.8z"/>
	<path d="M37.2,48.5h-8.4c-0.7,0-1.2,0.6-1.2,1.2v8.4c0,0.7,0.6,1.2,1.2,1.2h8.4c0.7,0,1.2-0.6,1.2-1.2v-8.4
		C38.3,49.1,37.8,48.5,37.2,48.5z M35.9,56.9H30V51h5.9V56.9z"/>
	<path d="M37.2,64.7h-8.4c-0.7,0-1.2,0.6-1.2,1.2v8.4c0,0.7,0.6,1.2,1.2,1.2h8.4c0.7,0,1.2-0.6,1.2-1.2v-8.4
		C38.3,65.3,37.8,64.7,37.2,64.7z M35.9,73H30v-5.9h5.9V73z"/>
	<path d="M69.2,48.5h-8.4c-0.7,0-1.2,0.6-1.2,1.2v8.4c0,0.7,0.6,1.2,1.2,1.2h8.4c0.7,0,1.2-0.6,1.2-1.2v-8.4
		C70.3,49.1,69.7,48.5,69.2,48.5z M67.8,56.9H62V51h5.9V56.9L67.8,56.9z"/>
	<path d="M69.2,64.7h-8.4c-0.7,0-1.2,0.6-1.2,1.2v8.4c0,0.7,0.6,1.2,1.2,1.2h8.4c0.7,0,1.2-0.6,1.2-1.2v-8.4
		C70.3,65.3,69.7,64.7,69.2,64.7z M67.8,73H62v-5.9h5.9V73L67.8,73z"/>
	<path d="M53.5,48.2h-8.4c-0.7,0-1.2,0.6-1.2,1.2v8.4c0,0.7,0.6,1.2,1.2,1.2h8.4c0.7,0,1.2-0.6,1.2-1.2v-8.4
		C54.6,48.8,54,48.2,53.5,48.2z M52.1,56.6h-5.9v-5.9h5.9V56.6z"/>
	<path d="M53.5,64.4h-8.4c-0.7,0-1.2,0.6-1.2,1.2v8.4c0,0.7,0.6,1.2,1.2,1.2h8.4c0.7,0,1.2-0.6,1.2-1.2v-8.4
		C54.6,65,54,64.4,53.5,64.4z M52.1,72.7h-5.9v-5.9h5.9V72.7z"/>
</g>
</svg>
