<?xml version="1.0" encoding="utf-8"?>
<!-- Generator: Adobe Illustrator 25.3.0, SVG Export Plug-In . SVG Version: 6.00 Build 0)  -->
<svg version="1.1" id="Layer_1" xmlns="http://www.w3.org/2000/svg" xmlns:xlink="http://www.w3.org/1999/xlink" x="0px" y="0px"
	 viewBox="0 0 146 146" style="enable-background:new 0 0 146 146;" xml:space="preserve">
<style type="text/css">
	.st0{fill:none;}
	.st1{fill:#FFFFFF;}
	.st2{fill:none;stroke:#515F76;stroke-width:2.4;stroke-miterlimit:10;}
	.st3{fill:none;stroke:#515F76;stroke-width:2.4;stroke-linecap:round;stroke-miterlimit:10;}
	.st4{fill:none;stroke:#FFFFFF;stroke-width:2.4;stroke-linecap:round;stroke-miterlimit:10;}
	.st5{fill:none;stroke:#515F76;stroke-width:2;stroke-linecap:round;stroke-miterlimit:10;}
	.st6{fill:none;stroke:#7BD489;stroke-width:1.6;stroke-linecap:round;stroke-miterlimit:10;}
	.st7{fill:none;stroke:#B8B9BA;stroke-width:1.6;stroke-linecap:round;stroke-miterlimit:10;}
	.st8{fill:#B8B9BA;}
</style>
<rect x="10.2" y="10.2" class="st0" width="125.5" height="125.5"/>
<path class="st1" d="M97.1,77.3c13.3,0,24,10.7,24,24s-10.7,24-24,24s-24-10.7-24-24l0,0C73.4,88,84.1,77.3,97.1,77.3z M114.9,101
	c0-9.7-7.8-17.7-17.7-17.7c-9.7,0-17.7,7.8-17.7,17.7c0,9.7,7.8,17.7,17.7,17.7S114.9,111,114.9,101L114.9,101z"/>
<path class="st1" d="M69.5,23.3c13.3,0,24,10.7,24,24s-10.7,24-24,24s-24-10.7-24-24l0,0C45.7,34,56.4,23.3,69.5,23.3z M87.2,47
	c0-9.7-7.8-17.7-17.7-17.7c-9.7,0-17.7,7.8-17.7,17.7s7.8,17.7,17.7,17.7S87.2,57,87.2,47L87.2,47z"/>
<circle cx="97.1" cy="101" r="17.7"/>
<circle cx="69.5" cy="47" r="17.7"/>
<circle class="st2" cx="69.5" cy="47" r="24"/>
<circle class="st2" cx="97.1" cy="101" r="24"/>
<circle class="st2" cx="97.1" cy="101" r="17.7"/>
<polyline class="st3" points="96.9,99.7 96.9,100.8 96.9,105.7 96.9,110.2 "/>
<polyline class="st3" points="102.9,93 97.4,99.5 96.6,99.5 91.1,93.2 "/>
<polyline class="st3" points="92.4,100.8 96.9,100.8 101.3,100.8 "/>
<polyline class="st3" points="92.4,105.7 97.8,105.7 103.1,105.7 "/>
<path class="st1" d="M43.1,77.3c13.3,0,24,10.7,24,24s-10.7,24-24,24s-23.7-11-23.7-24.3l0,0C19.4,88,30.1,77.3,43.1,77.3z
	 M60.9,101c0-9.7-7.8-17.7-17.7-17.7c-9.7,0-17.7,7.8-17.7,17.7c0,9.7,7.8,17.7,17.7,17.7S60.9,111,60.9,101L60.9,101z"/>
<circle cx="43.1" cy="101" r="17.7"/>
<circle class="st2" cx="43.1" cy="101" r="24"/>
<path class="st3" d="M51.2,107.8c-3.7,4.2-10.2,4.4-14.1,0.5c-4.2-3.7-4.4-10.2-0.5-14.1c3.7-4.2,10.2-4.4,14.1-0.5L51,94"/>
<polyline class="st3" points="31.4,98.2 34.5,98.2 43.1,98.2 "/>
<polyline class="st3" points="31.4,104.2 34.5,104.2 43.1,104.2 "/>
<path class="st4" d="M69.7,46.8c2.6,0,4.4,1.8,4.4,3.9s-2.1,3.9-4.4,3.9c-2.6,0-4.4-1.8-4.4-3.9"/>
<path class="st4" d="M74.2,42.9c0-2.1-2.1-3.9-4.4-3.9c-2.6,0-4.4,1.8-4.4,3.9c0,2.1,2.1,3.9,4.4,3.9"/>
<line class="st5" x1="69.5" y1="35.8" x2="69.5" y2="37.4"/>
<line class="st5" x1="69.5" y1="54.9" x2="69.5" y2="57.5"/>
<line class="st6" x1="33.5" y1="58" x2="36.1" y2="60.9"/>
<line class="st6" x1="36.1" y1="58" x2="33.5" y2="60.9"/>
<circle class="st7" cx="94.3" cy="19.4" r="1.8"/>
<circle class="st8" cx="96.6" cy="32.9" r="1.3"/>
<path class="st8" d="M104.7,24.3l2.1-1l0,0l0,0l-0.3,2.3l1.6,1.6l-2.3,0.3l-1,2.3l-1-2.1l-2.3-0.3l0,0l0,0l1.6-1.6l-0.5-2.3
	L104.7,24.3z"/>
<circle class="st8" cx="42.6" cy="67.4" r="1.3"/>
<circle class="st8" cx="14.1" cy="40" r="0.8"/>
<line class="st3" x1="96.1" y1="93.1" x2="96.1" y2="96"/>
<line class="st3" x1="97.7" y1="94.6" x2="94.6" y2="94.6"/>
</svg>
