<?xml version="1.0" encoding="utf-8"?>
<!-- Generator: Adobe Illustrator 25.3.0, SVG Export Plug-In . SVG Version: 6.00 Build 0)  -->
<svg version="1.1" id="food-meal-plate-restaurant" xmlns="http://www.w3.org/2000/svg" xmlns:xlink="http://www.w3.org/1999/xlink"
	 x="0px" y="0px" viewBox="0 0 64 64" style="enable-background:new 0 0 64 64;" xml:space="preserve">
<path d="M31.5,18.5c-6.9,0-12.6,5.7-12.6,12.6s5.7,12.6,12.6,12.6S44.1,38,44.1,31.1S38.4,18.5,31.5,18.5z M31.5,41.9
	c-6.1,0-11-4.9-11-11s4.9-11,11-11s11,4.9,11,11S37.4,41.9,31.5,41.9z"/>
<path d="M31.5,12.5c-10.2,0-18.5,8.3-18.5,18.5s8.4,18.4,18.5,18.4S50,41.2,50,30.9S41.6,12.5,31.5,12.5z M31.5,47.8
	c-9.2,0-16.8-7.6-16.8-16.8s7.4-16.8,16.8-16.8s16.8,7.4,16.8,16.8S40.7,47.8,31.5,47.8z"/>
<path d="M56.7,4.1c-1.4,0-2.6,1.1-2.7,2.4l-3.1,21.9c0,0.3,0,0.5,0.3,0.7l1.5,1.5v24.9c0,1.4,1.1,2.6,2.6,2.6c1.5,0,2.6-1.1,2.6-2.6
	V4.9C57.6,4.5,57.2,4.1,56.7,4.1z M55.8,55.4c0,0.4-0.4,0.8-0.8,0.8s-0.8-0.4-0.8-0.8V30.2c0-0.3-0.1-0.4-0.3-0.5l-1.4-1.4l3.1-21.5
	c0-0.3,0.1-0.4,0.3-0.5L55.8,55.4L55.8,55.4z"/>
<path d="M15.5,16.6V4.9c0-0.4-0.3-0.8-0.7-0.8c-0.5,0-0.8,0.3-0.9,0.7l-2,7.3l-1.4-7.3C10.4,4.4,10,4.1,9.6,4.1
	c-0.4,0-0.7,0.3-0.8,0.7l-1.4,7.3l-2-7.3C5.2,4.4,4.8,4.1,4.4,4.1S3.7,4.5,3.7,4.9v11.5c0,1.5,0.8,2.8,2.2,3.5
	c0.8,0.4,1.2,1.1,1.2,2v33.3c0,1.2,0.9,2.4,2.2,2.6c0.1,0,0.3,0,0.4,0c0.5,0,1.2-0.3,1.6-0.5c0.5-0.4,0.8-1.2,0.8-1.9V22
	c0-0.8,0.4-1.6,1.2-2C14.7,19.3,15.5,18.1,15.5,16.6z M12.7,18.5c-1.4,0.7-2.2,2-2.2,3.5v33.4c0,0.3-0.1,0.5-0.3,0.7
	c-0.1,0.1-0.4,0.3-0.7,0.1c-0.4,0-0.7-0.4-0.7-0.9V22c0-1.5-0.8-2.8-2.2-3.5c-0.8-0.4-1.2-1.1-1.2-2v-5.1L6.9,16
	c0.1,0.4,0.4,0.7,0.8,0.7c0.4,0,0.7-0.3,0.8-0.7l1.2-6.6l1.2,6.6c0.1,0.4,0.4,0.7,0.8,0.7c0.4,0,0.7-0.3,0.8-0.7l1.4-4.7v5.3
	C13.9,17.4,13.4,18.1,12.7,18.5z"/>
<rect x="29.9" y="35.3" width="1.6" height="1.6"/>
<rect x="33.1" y="35.3" width="1.6" height="1.6"/>
<rect x="36.5" y="35.3" width="1.6" height="1.6"/>
</svg>
