<?xml version="1.0" encoding="UTF-8"?>
<svg xmlns="http://www.w3.org/2000/svg" xmlns:xlink="http://www.w3.org/1999/xlink" viewBox="0 0 100 100" width="100px" height="100px">
<g id="surface221606557">
<path style=" stroke:none;fill-rule:nonzero;fill:rgb(40.000001%,40.000001%,40.000001%);fill-opacity:1;" d="M 72 7.980469 L 28 7.980469 C 16.972656 7.980469 8 16.953125 8 27.980469 L 8 71.980469 C 8 83.007812 16.972656 91.980469 28 91.980469 L 72 91.980469 C 83.027344 91.980469 92 83.007812 92 71.980469 L 92 27.980469 C 92 16.953125 83.027344 7.980469 72 7.980469 Z M 59.984375 55.765625 C 59.375 56.078125 58.625 56.078125 58.015625 55.765625 C 46.527344 49.882812 40 40.628906 40 32.308594 C 40 22.738281 50.519531 19.117188 57.542969 25.617188 C 58.367188 26.382812 59.628906 26.382812 60.457031 25.617188 C 67.480469 19.117188 78 22.738281 78 32.308594 C 78 40.628906 71.472656 49.882812 59.984375 55.765625 Z M 59.984375 55.765625 "/>
</g>
</svg>
