<?xml version="1.0" encoding="utf-8"?>
<!-- Generator: Adobe Illustrator 25.3.0, SVG Export Plug-In . SVG Version: 6.00 Build 0)  -->
<svg version="1.1" id="Layer_1" xmlns="http://www.w3.org/2000/svg" xmlns:xlink="http://www.w3.org/1999/xlink" x="0px" y="0px"
	 viewBox="0 0 20 10" style="enable-background:new 0 0 20 10;" xml:space="preserve">
<style type="text/css">
	.st0{fill:none;}
	.st1{fill-rule:evenodd;clip-rule:evenodd;fill:#1D1D1D;}
</style>
<desc>Created with Sketch.</desc>
<g id="Icons">
	<g id="Rounded" transform="translate(-748.000000, -2065.000000)">
		<g id="Editor" transform="translate(100.000000, 1960.000000)">
			<g id="_x2D_Round-_x2F_-Editor-_x2F_-insert_x5F_link" transform="translate(646.000000, 98.000000)">
				<g>
					<polygon id="Path" class="st0" points="-155.9,-71 -73.4,-71 -73.4,11.5 -155.9,11.5 					"/>
					<path id="_xD83D__xDD39_-Icon-Color" class="st1" d="M-142.3-31.9c1-5,5.7-8.5,10.9-8.5h10.1c1.8,0,3.3-1.5,3.3-3.3
						s-1.5-3.3-3.3-3.3h-9.7c-9,0-17,6.6-17.8,15.5c-1,10.2,7,18.9,17.1,18.9h10.5c1.8,0,3.3-1.5,3.3-3.3c0-1.8-1.5-3.3-3.3-3.3
						h-10.5C-138.4-19.1-143.6-25.1-142.3-31.9z M-124.9-26.3h20.6c1.9,0,3.4-1.5,3.4-3.4s-1.5-3.4-3.4-3.4h-20.6
						c-1.9,0-3.4,1.5-3.4,3.4S-126.8-26.3-124.9-26.3z M-98.2-46.9h-9.7c-1.8,0-3.3,1.5-3.3,3.3s1.5,3.3,3.3,3.3h10.1
						c5.2,0,9.9,3.5,10.9,8.5c1.3,6.8-3.9,12.8-10.4,12.8h-10.5c-1.8,0-3.3,1.5-3.3,3.3c0,1.8,1.5,3.3,3.3,3.3h10.5
						c10,0,18.1-8.6,17.1-18.9C-81.2-40.4-89.3-46.9-98.2-46.9z"/>
				</g>
			</g>
		</g>
	</g>
</g>
</svg>
