<?xml version="1.0" encoding="utf-8"?>
<!-- Generator: Adobe Illustrator 25.3.0, SVG Export Plug-In . SVG Version: 6.00 Build 0)  -->
<svg version="1.1" id="Слой_1" xmlns="http://www.w3.org/2000/svg" xmlns:xlink="http://www.w3.org/1999/xlink" x="0px" y="0px"
	 viewBox="0 0 100 100" style="enable-background:new 0 0 100 100;" xml:space="preserve">
<path d="M50,4.5C24.9,4.5,4.5,24.9,4.5,50S24.9,95.5,50,95.5S95.5,75.1,95.5,50C95.5,24.9,75.1,4.5,50,4.5z M50,92.5
	c-23.5,0-42.5-19-42.5-42.5S26.5,7.5,50,7.5s42.5,19,42.5,42.5C92.5,73.5,73.5,92.5,50,92.5z"/>
<path d="M73,60.8H51.5l1.9-7.5l8.3-3.3c0.4-0.2,0.8-0.5,0.9-1l3.1-10.4c0.2-0.8-0.2-1.6-1-1.9c-0.3-0.1-0.7-0.1-1,0l-6.8,2.7l3.7-15
	c0.2-0.8-0.3-1.6-1.1-1.8c-0.1,0-0.2,0-0.4,0H44.5c-0.7,0-1.3,0.4-1.5,1.1l-6.1,23.7l-7.4,2.9c-0.4,0.2-0.8,0.5-0.9,1l-3.1,10.4
	c-0.2,0.8,0.2,1.6,1,1.9c0.3,0.1,0.7,0.1,1,0l5.8-2.3l-2.7,10.4c-0.2,0.8,0.3,1.6,1.1,1.8c0.1,0,0.3,0,0.4,0h38.8
	c0.7,0,1.3-0.5,1.5-1.2l2.2-9.8c0.2-0.8-0.3-1.6-1.1-1.8C73.2,60.8,73.1,60.7,73,60.8z M69.6,70.5H34l3-11.4
	c0.2-0.8-0.3-1.6-1.1-1.8c-0.3-0.1-0.6-0.1-0.9,0.1l-5.6,2.3l2-6.8l7.4-2.9c0.4-0.2,0.8-0.5,0.9-1l6-23.3h11.5l-4,16
	c-0.2,0.8,0.3,1.6,1.1,1.8c0.3,0.1,0.6,0.1,0.9-0.1l6.7-2.7l-2,6.8l-8.3,3.3c-0.4,0.2-0.8,0.5-0.9,1l-2.5,10.2
	c-0.2,0.8,0.3,1.6,1.1,1.8c0.1,0,0.2,0,0.4,0h21.5L69.6,70.5z"/>
</svg>
