<?xml version="1.0" encoding="utf-8"?>
<!-- Generator: Adobe Illustrator 25.3.0, SVG Export Plug-In . SVG Version: 6.00 Build 0)  -->
<svg version="1.1" id="Layer_1" xmlns="http://www.w3.org/2000/svg" xmlns:xlink="http://www.w3.org/1999/xlink" x="0px" y="0px"
	 viewBox="0 0 100.8 100.7" style="enable-background:new 0 0 100.8 100.7;" xml:space="preserve">
<g>
	<path d="M30.8,43.9c0,2.6,2.1,4.4,4.4,4.4s4.4-2.1,4.4-4.4s-2.1-4.4-4.4-4.4S30.8,41.4,30.8,43.9z M37.4,43.9
		c0,1.2-0.9,1.9-1.9,1.9s-1.9-0.9-1.9-1.9s0.9-1.9,1.9-1.9S37.4,42.8,37.4,43.9z"/>
	<path d="M75.6,30c-0.7-0.2-1.4,0-1.9,0.5c-0.2,0.7,0,1.4,0.5,1.9c9.1,4.9,14.4,12.8,14.4,21.2c0,7.7-3,13.5-10,18.4
		c-0.2,0.2-0.5,0.5-0.5,0.7l-2.6,11.6h-4.9L69,78.4c0-0.5-0.2-0.7-0.7-0.9c-0.2-0.2-0.7-0.2-1.2,0c-4.2,1.6-7.5,2.1-13.3,2.1
		c-5.6,0-9.6-0.5-14.4-2.3c-0.5-0.2-0.7-0.2-1.2,0c-0.2,0.2-0.7,0.5-0.7,0.9l-1.4,6.3h-4.9L29,71.7c0-0.2-0.2-0.7-0.5-0.9
		C17.6,63.3,12,57,12,51.9V47c0-2.1,1.4-4,3.3-4H21l0,0c0,0,0,0,0.2,0c0.5,0,0.9-0.2,1.2-0.7c1.9-3.3,4.7-6.1,8.2-8.4
		c0.5-0.2,0.5-0.7,0.5-1.2V21.8c4.7,0.5,7.9,3.5,9.3,6.5c0.2,0.7,0.9,0.9,1.6,0.7c0.7-0.2,0.9-0.9,0.7-1.6c-1.6-4.2-6.3-8.2-13-8.2
		c-0.7,0-1.4,0.7-1.4,1.4v11.6c-3.3,2.3-6.1,5.1-7.9,8.2h-4.9c-3.3,0-6.1,2.8-6.1,6.5v4.9c0,8.9,12.3,17.5,17.2,20.7l2.6,13
		c0.2,0.7,0.7,1.2,1.4,1.2h7c0.7,0,1.2-0.5,1.2-0.9l1.4-5.8c4.9,1.6,8.9,2.1,14.2,2.1c4.9,0,8.4-0.2,12.8-1.9l1.4,5.6
		c0.2,0.5,0.7,0.9,1.2,0.9h7c0.7,0,1.2-0.5,1.2-0.9l2.8-12.1c7.2-5.4,10.7-11.9,10.7-20.3C91.4,43.9,85.6,35.3,75.6,30z"/>
	<path d="M49.7,33.7c0.5,0,0.7-0.2,0.9-0.5c1.9-1.9,4.7-3,7.7-3s5.8,1.2,7.7,3.3c0.2,0.2,0.7,0.5,0.9,0.5l0,0c0.5,0,0.7-0.2,0.9-0.5
		c1.6-2.1,2.6-4.7,2.6-7.5c0-6.8-5.4-12.1-12.1-12.1S46.2,19.3,46.2,26c0,2.6,0.9,5.1,2.3,7.2C49,33.5,49.2,33.5,49.7,33.7z
		 M58.3,16.2c5.1,0,9.6,4.2,9.6,9.6c0,1.6-0.5,3.3-1.2,4.4c-2.3-1.9-5.1-2.8-8.4-2.8c-3.3,0-6.1,0.9-8.4,2.8
		c-0.7-1.4-0.9-2.8-0.9-4.4C49,20.6,53.2,16.2,58.3,16.2z"/>
</g>
</svg>
