<?xml version="1.0" encoding="UTF-8"?>
<svg xmlns="http://www.w3.org/2000/svg" xmlns:xlink="http://www.w3.org/1999/xlink" viewBox="0 0 96 96" width="96px" height="96px">
<g id="surface228057229">
<path style=" stroke:none;fill-rule:nonzero;fill:rgb(40.000001%,40.000001%,40.000001%);fill-opacity:1;" d="M 48 4 C 34.703125 4 24 14.703125 24 28 L 24 32 C 21.910156 32 19.78125 32.765625 18.273438 34.273438 C 16.765625 35.78125 16 37.910156 16 40 L 16 80 C 16 82.089844 16.765625 84.21875 18.273438 85.726562 C 19.78125 87.234375 21.910156 88 24 88 L 72 88 C 74.089844 88 76.21875 87.234375 77.726562 85.726562 C 79.234375 84.21875 80 82.089844 80 80 L 80 40 C 80 37.910156 79.234375 35.78125 77.726562 34.273438 C 76.21875 32.765625 74.089844 32 72 32 L 72 28 C 72 14.703125 61.296875 4 48 4 Z M 48 12 C 57.105469 12 64 18.894531 64 28 L 64 32 L 32 32 L 32 28 C 32 18.894531 38.894531 12 48 12 Z M 48 52 C 52.398438 52 56 55.601562 56 60 C 56 64.398438 52.398438 68 48 68 C 43.601562 68 40 64.398438 40 60 C 40 55.601562 43.601562 52 48 52 Z M 48 52 "/>
</g>
</svg>
