<?xml version="1.0" encoding="utf-8"?>
<!-- Generator: Adobe Illustrator 25.3.0, SVG Export Plug-In . SVG Version: 6.00 Build 0)  -->
<svg version="1.1" id="Layer_1" xmlns="http://www.w3.org/2000/svg" xmlns:xlink="http://www.w3.org/1999/xlink" x="0px" y="0px"
	 viewBox="0 0 32 32" style="enable-background:new 0 0 32 32;" xml:space="preserve">
<style type="text/css">
	.st0{fill-rule:evenodd;clip-rule:evenodd;fill:#26A17B;}
	.st1{fill-rule:evenodd;clip-rule:evenodd;fill:#FFFFFF;}
</style>
<g>
	<circle class="st0" cx="16" cy="16" r="16"/>
	<path class="st1" d="M17.9,17.4L17.9,17.4c-0.1,0-0.7,0-1.9,0c-1,0-1.7,0-2,0v0c-3.9-0.2-6.8-0.8-6.8-1.7c0-0.8,2.9-1.5,6.8-1.7
		v2.6c0.3,0,1,0.1,2,0.1c1.2,0,1.8,0,1.9-0.1v-2.6c3.9,0.2,6.8,0.9,6.8,1.7C24.7,16.5,21.8,17.2,17.9,17.4 M17.9,13.8v-2.4h5.4V7.8
		H8.6v3.6H14v2.4c-4.4,0.2-7.7,1.1-7.7,2.1S9.6,17.8,14,18v7.6h3.9V18c4.4-0.2,7.7-1.1,7.7-2.1S22.3,14,17.9,13.8"/>
</g>
</svg>
