<?xml version="1.0" encoding="utf-8"?>
<!-- Generator: Adobe Illustrator 25.3.0, SVG Export Plug-In . SVG Version: 6.00 Build 0)  -->
<svg version="1.1" id="Layer_1" xmlns="http://www.w3.org/2000/svg" xmlns:xlink="http://www.w3.org/1999/xlink" x="0px" y="0px"
	 viewBox="0 0 25 25" style="enable-background:new 0 0 25 25;" xml:space="preserve">
<style type="text/css">
	.st0{fill:#0E1D25;}
</style>
<path id="Wallet" class="st0" d="M18.1,14.2c0,0.4-0.3,0.7-0.7,0.7s-0.7-0.3-0.7-0.7s0.3-0.7,0.7-0.7S18.1,13.7,18.1,14.2z
	 M21.8,12.9v2.6c0,0.4-0.3,0.8-0.7,1v2.8c0,0.5-0.4,0.9-1,0.9H5c-1-0.1-1.9-0.9-1.9-1.9V7.1C3.2,6,4,5.2,5,5.2h13.7
	c0.4,0,0.9,0.4,0.9,1v2h0.6c0.4,0,0.9,0.4,0.9,1V12C21.5,12.1,21.8,12.4,21.8,12.9z M3.9,7.1c0,0.3,0.1,0.6,0.4,0.8
	C4.4,8.1,4.7,8.2,5,8.2h13.8V7.4H5.4V6.7h13.4V6.2c0-0.1-0.1-0.2-0.1-0.2H5C4.4,5.9,3.9,6.5,3.9,7.1z M20.3,16.4h-3
	c-1.3,0-2.2-1-2.2-2.2s1-2.2,2.2-2.2h3V9.2c0-0.1-0.1-0.2-0.1-0.2H5c-0.4,0-0.8-0.1-1.1-0.4v9.7c0,0.6,0.5,1.1,1.1,1.1l0,0h15.1
	c0.1,0,0.2-0.1,0.2-0.2L20.3,16.4L20.3,16.4z M21.1,12.9c0-0.1-0.1-0.2-0.2-0.2h-3.5c-0.8,0-1.5,0.7-1.5,1.5c0,0.1,0,0.1,0,0.3
	c0.1,0.7,0.8,1.3,1.6,1.3h3.4c0.1,0,0.2-0.1,0.2-0.2V12.9z"/>
</svg>
